<?xml version="1.0" encoding="utf-8" standalone="no"?>
<!DOCTYPE svg PUBLIC "-//W3C//DTD SVG 1.1//EN"
  "http://www.w3.org/Graphics/SVG/1.1/DTD/svg11.dtd">
<svg xmlns:xlink="http://www.w3.org/1999/xlink" width="496.062992pt" height="259.2pt" viewBox="0 0 496.062992 259.2" xmlns="http://www.w3.org/2000/svg" version="1.1">
 <metadata>
  <rdf:RDF xmlns:dc="http://purl.org/dc/elements/1.1/" xmlns:cc="http://creativecommons.org/ns#" xmlns:rdf="http://www.w3.org/1999/02/22-rdf-syntax-ns#">
   <cc:Work>
    <dc:type rdf:resource="http://purl.org/dc/dcmitype/StillImage"/>
    <dc:date>2026-10-07T01:46:11.531731</dc:date>
    <dc:format>image/svg+xml</dc:format>
    <dc:creator>
     <cc:Agent>
      <dc:title>Matplotlib v3.10.8, https://matplotlib.org/</dc:title>
     </cc:Agent>
    </dc:creator>
   </cc:Work>
  </rdf:RDF>
 </metadata>
 <defs>
  <style type="text/css">*{stroke-linejoin: round; stroke-linecap: butt}</style>
 </defs>
 <g id="figure_1">
  <g id="patch_1">
   <path d="M 0 259.2 
L 496.062992 259.2 
L 496.062992 0 
L 0 0 
z
" style="fill: #ffffff"/>
  </g>
  <g id="axes_1">
   <g id="patch_2">
    <path d="M 49.606299 207.36 
L 205.973982 207.36 
L 205.973982 25.92 
L 49.606299 25.92 
z
" style="fill: #ffffff"/>
   </g>
   <g id="matplotlib.axis_1">
    <g id="xtick_1">
     <g id="line2d_1">
      <defs>
       <path id="ma431411345" d="M 0 0 
L 0 3.5 
" style="stroke: #000000; stroke-width: 0.6"/>
      </defs>
      <g>
       <use xlink:href="#ma431411345" x="49.606299" y="207.36" style="stroke: #000000; stroke-width: 0.6"/>
      </g>
     </g>
     <g id="text_1">
      <text style="font-size: 8.5px; font-family: 'DejaVu Sans'; text-anchor: middle" x="49.606299" y="220.818672" transform="rotate(-0 49.606299 220.818672)">0</text>
     </g>
    </g>
    <g id="xtick_2">
     <g id="line2d_2">
      <g>
       <use xlink:href="#ma431411345" x="85.144409" y="207.36" style="stroke: #000000; stroke-width: 0.6"/>
      </g>
     </g>
     <g id="text_2">
      <text style="font-size: 8.5px; font-family: 'DejaVu Sans'; text-anchor: middle" x="85.144409" y="220.818672" transform="rotate(-0 85.144409 220.818672)">5</text>
     </g>
    </g>
    <g id="xtick_3">
     <g id="line2d_3">
      <g>
       <use xlink:href="#ma431411345" x="120.682518" y="207.36" style="stroke: #000000; stroke-width: 0.6"/>
      </g>
     </g>
     <g id="text_3">
      <text style="font-size: 8.5px; font-family: 'DejaVu Sans'; text-anchor: middle" x="120.682518" y="220.818672" transform="rotate(-0 120.682518 220.818672)">10</text>
     </g>
    </g>
    <g id="xtick_4">
     <g id="line2d_4">
      <g>
       <use xlink:href="#ma431411345" x="156.220628" y="207.36" style="stroke: #000000; stroke-width: 0.6"/>
      </g>
     </g>
     <g id="text_4">
      <text style="font-size: 8.5px; font-family: 'DejaVu Sans'; text-anchor: middle" x="156.220628" y="220.818672" transform="rotate(-0 156.220628 220.818672)">15</text>
     </g>
    </g>
    <g id="xtick_5">
     <g id="line2d_5">
      <g>
       <use xlink:href="#ma431411345" x="191.758738" y="207.36" style="stroke: #000000; stroke-width: 0.6"/>
      </g>
     </g>
     <g id="text_5">
      <text style="font-size: 8.5px; font-family: 'DejaVu Sans'; text-anchor: middle" x="191.758738" y="220.818672" transform="rotate(-0 191.758738 220.818672)">20</text>
     </g>
    </g>
    <g id="text_6">
     <text style="font-size: 9px; font-family: 'DejaVu Sans'; text-anchor: middle" x="127.79014" y="233.425" transform="rotate(-0 127.79014 233.425)">Standardized report distance</text>
    </g>
   </g>
   <g id="matplotlib.axis_2">
    <g id="ytick_1">
     <g id="line2d_6">
      <defs>
       <path id="m2340366557" d="M 0 0 
L -3.5 0 
" style="stroke: #000000; stroke-width: 0.6"/>
      </defs>
      <g>
       <use xlink:href="#m2340366557" x="49.606299" y="207.36" style="stroke: #000000; stroke-width: 0.6"/>
      </g>
     </g>
     <g id="text_7">
      <text style="font-size: 8.5px; font-family: 'DejaVu Sans'; text-anchor: end" x="42.606299" y="210.589336" transform="rotate(-0 42.606299 210.589336)">0.00</text>
     </g>
    </g>
    <g id="ytick_2">
     <g id="line2d_7">
      <g>
       <use xlink:href="#m2340366557" x="49.606299" y="172.467692" style="stroke: #000000; stroke-width: 0.6"/>
      </g>
     </g>
     <g id="text_8">
      <text style="font-size: 8.5px; font-family: 'DejaVu Sans'; text-anchor: end" x="42.606299" y="175.697028" transform="rotate(-0 42.606299 175.697028)">0.25</text>
     </g>
    </g>
    <g id="ytick_3">
     <g id="line2d_8">
      <g>
       <use xlink:href="#m2340366557" x="49.606299" y="137.575385" style="stroke: #000000; stroke-width: 0.6"/>
      </g>
     </g>
     <g id="text_9">
      <text style="font-size: 8.5px; font-family: 'DejaVu Sans'; text-anchor: end" x="42.606299" y="140.804721" transform="rotate(-0 42.606299 140.804721)">0.50</text>
     </g>
    </g>
    <g id="ytick_4">
     <g id="line2d_9">
      <g>
       <use xlink:href="#m2340366557" x="49.606299" y="102.683077" style="stroke: #000000; stroke-width: 0.6"/>
      </g>
     </g>
     <g id="text_10">
      <text style="font-size: 8.5px; font-family: 'DejaVu Sans'; text-anchor: end" x="42.606299" y="105.912413" transform="rotate(-0 42.606299 105.912413)">0.75</text>
     </g>
    </g>
    <g id="ytick_5">
     <g id="line2d_10">
      <g>
       <use xlink:href="#m2340366557" x="49.606299" y="67.790769" style="stroke: #000000; stroke-width: 0.6"/>
      </g>
     </g>
     <g id="text_11">
      <text style="font-size: 8.5px; font-family: 'DejaVu Sans'; text-anchor: end" x="42.606299" y="71.020105" transform="rotate(-0 42.606299 71.020105)">1.00</text>
     </g>
    </g>
    <g id="text_12">
     <text style="font-size: 9px; font-family: 'DejaVu Sans'; text-anchor: middle" x="17.808799" y="116.64" transform="rotate(-90 17.808799 116.64)">Cumulative fraction</text>
    </g>
   </g>
   <g id="line2d_11">
    <path d="M 63.908826 205.033846 
L 69.581186 205.033846 
L 69.581186 202.707692 
L 71.654501 202.707692 
L 71.654501 200.381538 
L 76.579508 200.381538 
L 76.579508 198.055385 
L 78.026277 198.055385 
L 78.026277 195.729231 
L 78.501844 195.729231 
L 78.501844 193.403077 
L 78.771991 193.403077 
L 78.771991 191.076923 
L 79.233343 191.076923 
L 79.233343 188.750769 
L 80.332655 188.750769 
L 80.332655 186.424615 
L 80.667118 186.424615 
L 80.667118 184.098462 
L 80.907924 184.098462 
L 80.907924 181.772308 
L 81.332403 181.772308 
L 81.332403 179.446154 
L 83.478012 179.446154 
L 83.478012 177.12 
L 84.989665 177.12 
L 84.989665 174.793846 
L 85.625655 174.793846 
L 85.625655 172.467692 
L 85.779432 172.467692 
L 85.779432 170.141538 
L 86.092517 170.141538 
L 86.092517 167.815385 
L 87.768418 167.815385 
L 87.768418 165.489231 
L 88.989739 165.489231 
L 88.989739 163.163077 
L 89.673437 163.163077 
L 89.673437 160.836923 
L 89.71541 160.836923 
L 89.71541 158.510769 
L 90.758516 158.510769 
L 90.758516 156.184615 
L 90.939331 156.184615 
L 90.939331 153.858462 
L 91.522622 153.858462 
L 91.522622 151.532308 
L 92.779389 151.532308 
L 92.779389 149.206154 
L 93.665002 149.206154 
L 93.665002 146.88 
L 96.044526 146.88 
L 96.044526 144.553846 
L 97.595634 144.553846 
L 97.595634 142.227692 
L 97.658674 142.227692 
L 97.658674 139.901538 
L 99.366257 139.901538 
L 99.366257 137.575385 
L 99.37827 137.575385 
L 99.37827 135.249231 
L 100.192513 135.249231 
L 100.192513 132.923077 
L 100.510461 132.923077 
L 100.510461 130.596923 
L 100.716828 130.596923 
L 100.716828 128.270769 
L 101.07475 128.270769 
L 101.07475 125.944615 
L 101.223114 125.944615 
L 101.223114 123.618462 
L 101.439283 123.618462 
L 101.439283 121.292308 
L 103.257195 121.292308 
L 103.257195 118.966154 
L 104.627995 118.966154 
L 104.627995 116.64 
L 104.687136 116.64 
L 104.687136 114.313846 
L 104.89428 114.313846 
L 104.89428 111.987692 
L 107.177555 111.987692 
L 107.177555 109.661538 
L 107.546854 109.661538 
L 107.546854 107.335385 
L 107.631651 107.335385 
L 107.631651 105.009231 
L 108.306625 105.009231 
L 108.306625 102.683077 
L 108.421686 102.683077 
L 108.421686 100.356923 
L 110.02826 100.356923 
L 110.02826 98.030769 
L 113.60473 98.030769 
L 113.60473 95.704615 
L 114.822382 95.704615 
L 114.822382 93.378462 
L 116.150485 93.378462 
L 116.150485 91.052308 
L 119.750414 91.052308 
L 119.750414 88.726154 
L 123.869547 88.726154 
L 123.869547 86.4 
L 138.999852 86.4 
L 138.999852 84.073846 
L 141.78557 84.073846 
L 141.78557 81.747692 
L 147.025317 81.747692 
L 147.025317 79.421538 
L 148.024008 79.421538 
L 148.024008 77.095385 
L 149.16638 77.095385 
L 149.16638 74.769231 
L 150.607658 74.769231 
L 150.607658 72.443077 
L 173.069511 72.443077 
L 173.069511 70.116923 
L 194.278056 70.116923 
L 194.278056 67.790769 
" clip-path="url(#p2037411fe3)" style="fill: none; stroke: #0072b2; stroke-width: 1.4; stroke-linecap: square"/>
   </g>
   <g id="line2d_12">
    <path d="M 73.372905 207.36 
L 73.372905 25.92 
" clip-path="url(#p2037411fe3)" style="fill: none; stroke-dasharray: 1.1,1.815; stroke-dashoffset: 0; stroke: #737373; stroke-width: 1.1"/>
   </g>
   <g id="patch_3">
    <path d="M 49.606299 207.36 
L 49.606299 25.92 
" style="fill: none; stroke: #000000; stroke-width: 0.6; stroke-linejoin: miter; stroke-linecap: square"/>
   </g>
   <g id="patch_4">
    <path d="M 49.606299 207.36 
L 205.973982 207.36 
" style="fill: none; stroke: #000000; stroke-width: 0.6; stroke-linejoin: miter; stroke-linecap: square"/>
   </g>
   <g id="text_13">
    <text style="font-weight: 700; font-size: 9.5px; font-family: 'DejaVu Sans'; text-anchor: start" x="49.606299" y="17.92" transform="rotate(-0 49.606299 17.92)">(a) Shared 60 parent–donor pairs</text>
   </g>
   <g id="legend_1">
    <g id="patch_5">
     <path d="M 63.318304 54.697812 
L 192.261976 54.697812 
Q 193.961976 54.697812 193.961976 52.997812 
L 193.961976 30.595 
Q 193.961976 28.895 192.261976 28.895 
L 63.318304 28.895 
Q 61.618304 28.895 61.618304 30.595 
L 61.618304 52.997812 
Q 61.618304 54.697812 63.318304 54.697812 
z
" style="fill: #ffffff"/>
    </g>
    <g id="line2d_13">
     <path d="M 65.018304 35.778672 
L 70.968304 35.778672 
L 76.918304 35.778672 
" style="fill: none; stroke: #0072b2; stroke-width: 1.4; stroke-linecap: square"/>
    </g>
    <g id="text_14">
     <text style="font-size: 8.5px; font-family: 'DejaVu Sans'; text-anchor: start" x="80.318304" y="38.753672" transform="rotate(-0 80.318304 38.753672)">Parent–donor ECDF</text>
    </g>
    <g id="line2d_14">
     <path d="M 65.018304 46.555078 
L 70.968304 46.555078 
L 76.918304 46.555078 
" style="fill: none; stroke-dasharray: 1.1,1.815; stroke-dashoffset: 0; stroke: #737373; stroke-width: 1.1"/>
    </g>
    <g id="text_15">
     <text style="font-size: 8.5px; font-family: 'DejaVu Sans'; text-anchor: start" x="80.318304" y="49.530078" transform="rotate(-0 80.318304 49.530078)">Reference 10th percentile</text>
    </g>
   </g>
  </g>
  <g id="axes_2">
   <g id="patch_6">
    <path d="M 324.81342 207.36 
L 481.181102 207.36 
L 481.181102 25.92 
L 324.81342 25.92 
z
" style="fill: #ffffff"/>
   </g>
   <g id="matplotlib.axis_3">
    <g id="xtick_6">
     <g id="line2d_15">
      <g>
       <use xlink:href="#ma431411345" x="324.81342" y="207.36" style="stroke: #000000; stroke-width: 0.6"/>
      </g>
     </g>
     <g id="text_16">
      <text style="font-size: 8.5px; font-family: 'DejaVu Sans'; text-anchor: middle" x="324.81342" y="220.818672" transform="rotate(-0 324.81342 220.818672)">0</text>
     </g>
    </g>
    <g id="xtick_7">
     <g id="line2d_16">
      <g>
       <use xlink:href="#ma431411345" x="360.35153" y="207.36" style="stroke: #000000; stroke-width: 0.6"/>
      </g>
     </g>
     <g id="text_17">
      <text style="font-size: 8.5px; font-family: 'DejaVu Sans'; text-anchor: middle" x="360.35153" y="220.818672" transform="rotate(-0 360.35153 220.818672)">5</text>
     </g>
    </g>
    <g id="xtick_8">
     <g id="line2d_17">
      <g>
       <use xlink:href="#ma431411345" x="395.889639" y="207.36" style="stroke: #000000; stroke-width: 0.6"/>
      </g>
     </g>
     <g id="text_18">
      <text style="font-size: 8.5px; font-family: 'DejaVu Sans'; text-anchor: middle" x="395.889639" y="220.818672" transform="rotate(-0 395.889639 220.818672)">10</text>
     </g>
    </g>
    <g id="xtick_9">
     <g id="line2d_18">
      <g>
       <use xlink:href="#ma431411345" x="431.427749" y="207.36" style="stroke: #000000; stroke-width: 0.6"/>
      </g>
     </g>
     <g id="text_19">
      <text style="font-size: 8.5px; font-family: 'DejaVu Sans'; text-anchor: middle" x="431.427749" y="220.818672" transform="rotate(-0 431.427749 220.818672)">15</text>
     </g>
    </g>
    <g id="xtick_10">
     <g id="line2d_19">
      <g>
       <use xlink:href="#ma431411345" x="466.965859" y="207.36" style="stroke: #000000; stroke-width: 0.6"/>
      </g>
     </g>
     <g id="text_20">
      <text style="font-size: 8.5px; font-family: 'DejaVu Sans'; text-anchor: middle" x="466.965859" y="220.818672" transform="rotate(-0 466.965859 220.818672)">20</text>
     </g>
    </g>
    <g id="text_21">
     <text style="font-size: 9px; font-family: 'DejaVu Sans'; text-anchor: middle" x="402.997261" y="233.425" transform="rotate(-0 402.997261 233.425)">Standardized report distance</text>
    </g>
   </g>
   <g id="matplotlib.axis_4">
    <g id="ytick_6">
     <g id="line2d_20"/>
     <g id="text_22">
      <text style="font-size: 8.5px; font-family: 'DejaVu Sans'" transform="translate(244.472873 166.156133)">Within-population</text>
      <text style="font-size: 8.5px; font-family: 'DejaVu Sans'" transform="translate(279.233889 175.674273)">reference</text>
     </g>
    </g>
    <g id="ytick_7">
     <g id="line2d_21"/>
     <g id="text_23">
      <text style="font-size: 8.5px; font-family: 'DejaVu Sans'; text-anchor: end" x="319.81342" y="103.069336" transform="rotate(-0 319.81342 103.069336)">Parent–donor</text>
     </g>
    </g>
   </g>
   <g id="line2d_22">
    <path d="M 339.115947 99.84 
L 469.485177 99.84 
" clip-path="url(#pa9f36760a7)" style="fill: none; stroke: #0072b2; stroke-width: 1.25; stroke-linecap: square"/>
   </g>
   <g id="line2d_23">
    <path d="M 339.115947 102.864 
L 339.115947 96.816 
" clip-path="url(#pa9f36760a7)" style="fill: none; stroke: #0072b2; stroke-width: 1.1; stroke-linecap: square"/>
   </g>
   <g id="line2d_24">
    <path d="M 469.485177 102.864 
L 469.485177 96.816 
" clip-path="url(#pa9f36760a7)" style="fill: none; stroke: #0072b2; stroke-width: 1.1; stroke-linecap: square"/>
   </g>
   <g id="line2d_25">
    <path d="M 348.580025 167.04 
L 414.68201 167.04 
" clip-path="url(#pa9f36760a7)" style="fill: none; stroke: #737373; stroke-width: 1.25; stroke-linecap: square"/>
   </g>
   <g id="line2d_26">
    <path d="M 348.580025 170.064 
L 348.580025 164.016 
" clip-path="url(#pa9f36760a7)" style="fill: none; stroke: #737373; stroke-width: 1.1; stroke-linecap: square"/>
   </g>
   <g id="line2d_27">
    <path d="M 414.68201 170.064 
L 414.68201 164.016 
" clip-path="url(#pa9f36760a7)" style="fill: none; stroke: #737373; stroke-width: 1.1; stroke-linecap: square"/>
   </g>
   <g id="patch_7">
    <path d="M 324.81342 207.36 
L 324.81342 25.92 
" style="fill: none; stroke: #000000; stroke-width: 0.6; stroke-linejoin: miter; stroke-linecap: square"/>
   </g>
   <g id="patch_8">
    <path d="M 324.81342 207.36 
L 481.181102 207.36 
" style="fill: none; stroke: #000000; stroke-width: 0.6; stroke-linejoin: miter; stroke-linecap: square"/>
   </g>
   <g id="PathCollection_1">
    <defs>
     <path id="m31f221d4f5" d="M 0 2.828427 
C 0.750108 2.828427 1.469594 2.530406 2 2 
C 2.530406 1.469594 2.828427 0.750108 2.828427 0 
C 2.828427 -0.750108 2.530406 -1.469594 2 -2 
C 1.469594 -2.530406 0.750108 -2.828427 0 -2.828427 
C -0.750108 -2.828427 -1.469594 -2.530406 -2 -2 
C -2.530406 -1.469594 -2.828427 -0.750108 -2.828427 0 
C -2.828427 0.750108 -2.530406 1.469594 -2 2 
C -1.469594 2.530406 -0.750108 2.828427 0 2.828427 
z
" style="stroke: #0072b2"/>
    </defs>
    <g clip-path="url(#pa9f36760a7)">
     <use xlink:href="#m31f221d4f5" x="377.777257" y="99.84" style="fill: #0072b2; stroke: #0072b2"/>
    </g>
   </g>
   <g id="PathCollection_2">
    <defs>
     <path id="m5efe210d92" d="M -2.828427 2.828427 
L 2.828427 2.828427 
L 2.828427 -2.828427 
L -2.828427 -2.828427 
z
" style="stroke: #737373"/>
    </defs>
    <g clip-path="url(#pa9f36760a7)">
     <use xlink:href="#m5efe210d92" x="378.026799" y="167.04" style="fill: #737373; stroke: #737373"/>
    </g>
   </g>
   <g id="text_24">
    <text style="font-weight: 700; font-size: 9.5px; font-family: 'DejaVu Sans'; text-anchor: start" x="324.81342" y="17.92" transform="rotate(-0 324.81342 17.92)">(b) Descriptive reference</text>
   </g>
   <g id="legend_2">
    <g id="patch_9">
     <path d="M 352.177222 54.697812 
L 453.8173 54.697812 
Q 455.5173 54.697812 455.5173 52.997812 
L 455.5173 30.595 
Q 455.5173 28.895 453.8173 28.895 
L 352.177222 28.895 
Q 350.477222 28.895 350.477222 30.595 
L 350.477222 52.997812 
Q 350.477222 54.697812 352.177222 54.697812 
z
" style="fill: #ffffff"/>
    </g>
    <g id="line2d_28">
     <defs>
      <path id="m922f7b5691" d="M 0 3 
C 0.795609 3 1.55874 2.683901 2.12132 2.12132 
C 2.683901 1.55874 3 0.795609 3 0 
C 3 -0.795609 2.683901 -1.55874 2.12132 -2.12132 
C 1.55874 -2.683901 0.795609 -3 0 -3 
C -0.795609 -3 -1.55874 -2.683901 -2.12132 -2.12132 
C -2.683901 -1.55874 -3 -0.795609 -3 0 
C -3 0.795609 -2.683901 1.55874 -2.12132 2.12132 
C -1.55874 2.683901 -0.795609 3 0 3 
z
" style="stroke: #0072b2"/>
     </defs>
     <g>
      <use xlink:href="#m922f7b5691" x="359.827222" y="35.778672" style="fill: #0072b2; stroke: #0072b2"/>
     </g>
    </g>
    <g id="text_25">
     <text style="font-size: 8.5px; font-family: 'DejaVu Sans'; text-anchor: start" x="369.177222" y="38.753672" transform="rotate(-0 369.177222 38.753672)">Parent–donor mean</text>
    </g>
    <g id="line2d_29">
     <defs>
      <path id="md102ab6a0d" d="M -3 3 
L 3 3 
L 3 -3 
L -3 -3 
z
" style="stroke: #737373; stroke-linejoin: miter"/>
     </defs>
     <g>
      <use xlink:href="#md102ab6a0d" x="359.827222" y="46.555078" style="fill: #737373; stroke: #737373; stroke-linejoin: miter"/>
     </g>
    </g>
    <g id="text_26">
     <text style="font-size: 8.5px; font-family: 'DejaVu Sans'; text-anchor: start" x="369.177222" y="49.530078" transform="rotate(-0 369.177222 49.530078)">Reference mean</text>
    </g>
   </g>
  </g>
 </g>
 <defs>
  <clipPath id="p2037411fe3">
   <rect x="49.606299" y="25.92" width="156.367682" height="181.44"/>
  </clipPath>
  <clipPath id="pa9f36760a7">
   <rect x="324.81342" y="25.92" width="156.367682" height="181.44"/>
  </clipPath>
 </defs>
</svg>
