<?xml version="1.0" encoding="utf-8" standalone="no"?>
<!DOCTYPE svg PUBLIC "-//W3C//DTD SVG 1.1//EN"
  "http://www.w3.org/Graphics/SVG/1.1/DTD/svg11.dtd">
<svg xmlns:xlink="http://www.w3.org/1999/xlink" width="496.062992pt" height="391.181102pt" viewBox="0 0 496.062992 391.181102" xmlns="http://www.w3.org/2000/svg" version="1.1">
 <metadata>
  <rdf:RDF xmlns:dc="http://purl.org/dc/elements/1.1/" xmlns:cc="http://creativecommons.org/ns#" xmlns:rdf="http://www.w3.org/1999/02/22-rdf-syntax-ns#">
   <cc:Work>
    <dc:type rdf:resource="http://purl.org/dc/dcmitype/StillImage"/>
    <dc:date>2026-10-07T01:00:05.085684</dc:date>
    <dc:format>image/svg+xml</dc:format>
    <dc:creator>
     <cc:Agent>
      <dc:title>Matplotlib v3.10.8, https://matplotlib.org/</dc:title>
     </cc:Agent>
    </dc:creator>
   </cc:Work>
  </rdf:RDF>
 </metadata>
 <defs>
  <style type="text/css">*{stroke-linejoin: round; stroke-linecap: butt}</style>
 </defs>
 <g id="figure_1">
  <g id="patch_1">
   <path d="M 0 391.181102 
L 496.062992 391.181102 
L 496.062992 0 
L 0 0 
z
" style="fill: #ffffff"/>
  </g>
  <g id="axes_1">
   <g id="patch_2">
    <path d="M 52.086614 154.516535 
L 250.511811 154.516535 
L 250.511811 37.162205 
L 52.086614 37.162205 
z
" style="fill: #ffffff"/>
   </g>
   <g id="line2d_1">
    <path d="M 52.086614 145.823622 
L 250.511811 145.823622 
" clip-path="url(#p76633541b6)" style="fill: none; stroke: #888888; stroke-width: 0.7; stroke-linecap: square"/>
   </g>
   <g id="matplotlib.axis_1">
    <g id="xtick_1">
     <g id="line2d_2">
      <defs>
       <path id="mbf6159b3c7" d="M 0 0 
L 0 3.5 
" style="stroke: #000000; stroke-width: 0.6"/>
      </defs>
      <g>
       <use xlink:href="#mbf6159b3c7" x="151.299213" y="154.516535" style="stroke: #000000; stroke-width: 0.6"/>
      </g>
     </g>
     <g id="text_1">
      <text style="font-size: 8.5px; font-family: 'DejaVu Sans'; text-anchor: middle" x="151.299213" y="167.975207" transform="rotate(-0 151.299213 167.975207)">OFF</text>
     </g>
    </g>
   </g>
   <g id="matplotlib.axis_2">
    <g id="ytick_1">
     <g id="line2d_3">
      <path d="M 52.086614 145.823622 
L 250.511811 145.823622 
" clip-path="url(#p76633541b6)" style="fill: none; stroke: #e8e8e8; stroke-width: 0.5; stroke-linecap: square"/>
     </g>
     <g id="line2d_4"/>
     <g id="text_2">
      <text style="font-size: 8.5px; font-family: 'DejaVu Sans'; text-anchor: end" x="47.086614" y="149.052958" transform="rotate(-0 47.086614 149.052958)">0.00</text>
     </g>
    </g>
    <g id="ytick_2">
     <g id="line2d_5">
      <path d="M 52.086614 124.091339 
L 250.511811 124.091339 
" clip-path="url(#p76633541b6)" style="fill: none; stroke: #e8e8e8; stroke-width: 0.5; stroke-linecap: square"/>
     </g>
     <g id="line2d_6"/>
     <g id="text_3">
      <text style="font-size: 8.5px; font-family: 'DejaVu Sans'; text-anchor: end" x="47.086614" y="127.320675" transform="rotate(-0 47.086614 127.320675)">0.05</text>
     </g>
    </g>
    <g id="ytick_3">
     <g id="line2d_7">
      <path d="M 52.086614 102.359055 
L 250.511811 102.359055 
" clip-path="url(#p76633541b6)" style="fill: none; stroke: #e8e8e8; stroke-width: 0.5; stroke-linecap: square"/>
     </g>
     <g id="line2d_8"/>
     <g id="text_4">
      <text style="font-size: 8.5px; font-family: 'DejaVu Sans'; text-anchor: end" x="47.086614" y="105.588391" transform="rotate(-0 47.086614 105.588391)">0.10</text>
     </g>
    </g>
    <g id="ytick_4">
     <g id="line2d_9">
      <path d="M 52.086614 80.626772 
L 250.511811 80.626772 
" clip-path="url(#p76633541b6)" style="fill: none; stroke: #e8e8e8; stroke-width: 0.5; stroke-linecap: square"/>
     </g>
     <g id="line2d_10"/>
     <g id="text_5">
      <text style="font-size: 8.5px; font-family: 'DejaVu Sans'; text-anchor: end" x="47.086614" y="83.856108" transform="rotate(-0 47.086614 83.856108)">0.15</text>
     </g>
    </g>
    <g id="ytick_5">
     <g id="line2d_11">
      <path d="M 52.086614 58.894488 
L 250.511811 58.894488 
" clip-path="url(#p76633541b6)" style="fill: none; stroke: #e8e8e8; stroke-width: 0.5; stroke-linecap: square"/>
     </g>
     <g id="line2d_12"/>
     <g id="text_6">
      <text style="font-size: 8.5px; font-family: 'DejaVu Sans'; text-anchor: end" x="47.086614" y="62.123824" transform="rotate(-0 47.086614 62.123824)">0.20</text>
     </g>
    </g>
    <g id="text_7">
     <text style="font-size: 9px; font-family: 'DejaVu Sans'" transform="translate(12.211083 144.238276) rotate(-90)">Payoff gain per round</text>
     <text style="font-size: 9px; font-family: 'DejaVu Sans'" transform="translate(22.289114 117.025229) rotate(-90)">vs parent</text>
    </g>
   </g>
   <g id="patch_3">
    <path d="M 52.086614 154.516535 
L 52.086614 37.162205 
" style="fill: none; stroke: #000000; stroke-width: 0.6; stroke-linejoin: miter; stroke-linecap: square"/>
   </g>
   <g id="patch_4">
    <path d="M 52.086614 154.516535 
L 250.511811 154.516535 
" style="fill: none; stroke: #000000; stroke-width: 0.6; stroke-linejoin: miter; stroke-linecap: square"/>
   </g>
   <g id="patch_5">
    <path d="M 95.379384 145.823622 
L 145.887616 145.823622 
L 145.887616 141.07874 
L 95.379384 141.07874 
z
" clip-path="url(#p76633541b6)" style="fill: #737373"/>
   </g>
   <g id="patch_6">
    <path d="M 156.710809 145.823622 
L 207.219041 145.823622 
L 207.219041 127.966929 
L 156.710809 127.966929 
z
" clip-path="url(#p76633541b6)" style="fill: #303030"/>
   </g>
   <g id="text_8">
    <text style="font-size: 8.5px; font-family: 'DejaVu Sans'; text-anchor: middle" x="151.299213" y="184.446073" transform="rotate(-0 151.299213 184.446073)">deepseek-flash</text>
   </g>
   <g id="LineCollection_1">
    <path d="M 120.6335 141.07874 
L 120.6335 141.07874 
" clip-path="url(#p76633541b6)" style="fill: none; stroke: #303030"/>
   </g>
   <g id="line2d_13">
    <defs>
     <path id="mf0ddc45e6a" d="M 2.5 0 
L -2.5 -0 
" style="stroke: #303030; stroke-width: 0.8"/>
    </defs>
    <g clip-path="url(#p76633541b6)">
     <use xlink:href="#mf0ddc45e6a" x="120.6335" y="141.07874" style="fill: #1f77b4; stroke: #303030; stroke-width: 0.8"/>
    </g>
   </g>
   <g id="line2d_14">
    <g clip-path="url(#p76633541b6)">
     <use xlink:href="#mf0ddc45e6a" x="120.6335" y="141.07874" style="fill: #1f77b4; stroke: #303030; stroke-width: 0.8"/>
    </g>
   </g>
   <g id="LineCollection_2">
    <path d="M 181.964925 127.966929 
L 181.964925 127.966929 
" clip-path="url(#p76633541b6)" style="fill: none; stroke: #303030"/>
   </g>
   <g id="line2d_15">
    <g clip-path="url(#p76633541b6)">
     <use xlink:href="#mf0ddc45e6a" x="181.964925" y="127.966929" style="fill: #1f77b4; stroke: #303030; stroke-width: 0.8"/>
    </g>
   </g>
   <g id="line2d_16">
    <g clip-path="url(#p76633541b6)">
     <use xlink:href="#mf0ddc45e6a" x="181.964925" y="127.966929" style="fill: #1f77b4; stroke: #303030; stroke-width: 0.8"/>
    </g>
   </g>
   <g id="legend_1">
    <g id="patch_7">
     <path d="M 116.346947 55.163611 
L 186.251478 55.163611 
Q 187.951478 55.163611 187.951478 53.463611 
L 187.951478 41.837205 
Q 187.951478 40.137205 186.251478 40.137205 
L 116.346947 40.137205 
Q 114.646947 40.137205 114.646947 41.837205 
L 114.646947 53.463611 
Q 114.646947 55.163611 116.346947 55.163611 
z
" style="fill: #ffffff"/>
    </g>
    <g id="patch_8">
     <path d="M 118.046947 49.995877 
L 129.946947 49.995877 
L 129.946947 44.045877 
L 118.046947 44.045877 
z
" style="fill: #737373"/>
    </g>
    <g id="text_9">
     <text style="font-size: 8.5px; font-family: 'DejaVu Sans'; text-anchor: start" x="133.346947" y="49.995877" transform="rotate(-0 133.346947 49.995877)">Raw</text>
    </g>
    <g id="patch_9">
     <path d="M 158.447181 49.995877 
L 170.347181 49.995877 
L 170.347181 44.045877 
L 158.447181 44.045877 
z
" style="fill: #303030"/>
    </g>
    <g id="text_10">
     <text style="font-size: 8.5px; font-family: 'DejaVu Sans'; text-anchor: start" x="173.747181" y="49.995877" transform="rotate(-0 173.747181 49.995877)">S3</text>
    </g>
   </g>
  </g>
  <g id="axes_2">
   <g id="patch_10">
    <path d="M 357.165354 154.516535 
L 486.141732 154.516535 
L 486.141732 37.162205 
L 357.165354 37.162205 
z
" style="fill: #ffffff"/>
   </g>
   <g id="line2d_17">
    <path d="M 416.692913 154.516535 
L 416.692913 37.162205 
" clip-path="url(#p1c43cb06a6)" style="fill: none; stroke: #888888; stroke-width: 0.7; stroke-linecap: square"/>
   </g>
   <g id="matplotlib.axis_3">
    <g id="xtick_2">
     <g id="line2d_18">
      <path d="M 377.007874 154.516535 
L 377.007874 37.162205 
" clip-path="url(#p1c43cb06a6)" style="fill: none; stroke: #e8e8e8; stroke-width: 0.5; stroke-linecap: square"/>
     </g>
     <g id="line2d_19">
      <g>
       <use xlink:href="#mbf6159b3c7" x="377.007874" y="154.516535" style="stroke: #000000; stroke-width: 0.6"/>
      </g>
     </g>
     <g id="text_11">
      <text style="font-size: 8.5px; font-family: 'DejaVu Sans'; text-anchor: middle" x="377.007874" y="167.975207" transform="rotate(-0 377.007874 167.975207)">-0.02</text>
     </g>
    </g>
    <g id="xtick_3">
     <g id="line2d_20">
      <path d="M 416.692913 154.516535 
L 416.692913 37.162205 
" clip-path="url(#p1c43cb06a6)" style="fill: none; stroke: #e8e8e8; stroke-width: 0.5; stroke-linecap: square"/>
     </g>
     <g id="line2d_21">
      <g>
       <use xlink:href="#mbf6159b3c7" x="416.692913" y="154.516535" style="stroke: #000000; stroke-width: 0.6"/>
      </g>
     </g>
     <g id="text_12">
      <text style="font-size: 8.5px; font-family: 'DejaVu Sans'; text-anchor: middle" x="416.692913" y="167.975207" transform="rotate(-0 416.692913 167.975207)">0.00</text>
     </g>
    </g>
    <g id="xtick_4">
     <g id="line2d_22">
      <path d="M 456.377953 154.516535 
L 456.377953 37.162205 
" clip-path="url(#p1c43cb06a6)" style="fill: none; stroke: #e8e8e8; stroke-width: 0.5; stroke-linecap: square"/>
     </g>
     <g id="line2d_23">
      <g>
       <use xlink:href="#mbf6159b3c7" x="456.377953" y="154.516535" style="stroke: #000000; stroke-width: 0.6"/>
      </g>
     </g>
     <g id="text_13">
      <text style="font-size: 8.5px; font-family: 'DejaVu Sans'; text-anchor: middle" x="456.377953" y="167.975207" transform="rotate(-0 456.377953 167.975207)">0.02</text>
     </g>
    </g>
    <g id="text_14">
     <text style="font-size: 9px; font-family: 'DejaVu Sans'" transform="translate(356.854246 180.581535)">Raw Accurate − Mismatched</text>
     <text style="font-size: 9px; font-family: 'DejaVu Sans'" transform="translate(380.543934 190.659567)">(payoff per round)</text>
    </g>
   </g>
   <g id="matplotlib.axis_4">
    <g id="ytick_6">
     <g id="line2d_24"/>
     <g id="text_15">
      <text style="font-size: 8.5px; font-family: 'DejaVu Sans'" transform="translate(287.658323 119.661678)">deepseek-flash</text>
      <text style="font-size: 8.5px; font-family: 'DejaVu Sans'" transform="translate(335.696604 129.179818)">OFF</text>
     </g>
    </g>
   </g>
   <g id="patch_11">
    <path d="M 357.165354 154.516535 
L 486.141732 154.516535 
" style="fill: none; stroke: #000000; stroke-width: 0.6; stroke-linejoin: miter; stroke-linecap: square"/>
   </g>
   <g id="text_16">
    <text style="font-size: 8.5px; font-family: 'DejaVu Sans'; text-anchor: end; fill: #505050" x="486.141732" y="35.988661" transform="rotate(-0 486.141732 35.988661)">Accurate higher →</text>
   </g>
   <g id="LineCollection_3">
    <path d="M 427.316929 120.545545 
L 427.316929 120.545545 
" clip-path="url(#p1c43cb06a6)" style="fill: none; stroke: #303030"/>
   </g>
   <g id="line2d_25">
    <defs>
     <path id="mce9d3d8391" d="M 0 2 
L 0 -2 
" style="stroke: #303030; stroke-width: 0.9"/>
    </defs>
    <g clip-path="url(#p1c43cb06a6)">
     <use xlink:href="#mce9d3d8391" x="427.316929" y="120.545545" style="fill: #303030; stroke: #303030; stroke-width: 0.9"/>
    </g>
   </g>
   <g id="line2d_26">
    <g clip-path="url(#p1c43cb06a6)">
     <use xlink:href="#mce9d3d8391" x="427.316929" y="120.545545" style="fill: #303030; stroke: #303030; stroke-width: 0.9"/>
    </g>
   </g>
   <g id="line2d_27">
    <defs>
     <path id="m40b0607753" d="M 0 2.3 
C 0.609967 2.3 1.195034 2.057657 1.626346 1.626346 
C 2.057657 1.195034 2.3 0.609967 2.3 0 
C 2.3 -0.609967 2.057657 -1.195034 1.626346 -1.626346 
C 1.195034 -2.057657 0.609967 -2.3 0 -2.3 
C -0.609967 -2.3 -1.195034 -2.057657 -1.626346 -1.626346 
C -2.057657 -1.195034 -2.3 -0.609967 -2.3 0 
C -2.3 0.609967 -2.057657 1.195034 -1.626346 1.626346 
C -1.195034 2.057657 -0.609967 2.3 0 2.3 
z
" style="stroke: #303030; stroke-width: 0.9"/>
    </defs>
    <g clip-path="url(#p1c43cb06a6)">
     <use xlink:href="#m40b0607753" x="427.316929" y="120.545545" style="fill: #303030; stroke: #303030; stroke-width: 0.9"/>
    </g>
   </g>
   <g id="legend_2">
    <g id="patch_12">
     <path d="M 394.14409 55.163611 
L 449.162996 55.163611 
Q 450.862996 55.163611 450.862996 53.463611 
L 450.862996 41.837205 
Q 450.862996 40.137205 449.162996 40.137205 
L 394.14409 40.137205 
Q 392.44409 40.137205 392.44409 41.837205 
L 392.44409 53.463611 
Q 392.44409 55.163611 394.14409 55.163611 
z
" style="fill: #ffffff"/>
    </g>
    <g id="line2d_28">
     <path d="M 395.84409 47.020877 
L 401.79409 47.020877 
L 407.74409 47.020877 
" style="fill: none"/>
     <defs>
      <path id="mc5fa19214d" d="M 0 3 
C 0.795609 3 1.55874 2.683901 2.12132 2.12132 
C 2.683901 1.55874 3 0.795609 3 0 
C 3 -0.795609 2.683901 -1.55874 2.12132 -2.12132 
C 1.55874 -2.683901 0.795609 -3 0 -3 
C -0.795609 -3 -1.55874 -2.683901 -2.12132 -2.12132 
C -2.683901 -1.55874 -3 -0.795609 -3 0 
C -3 0.795609 -2.683901 1.55874 -2.12132 2.12132 
C -1.55874 2.683901 -0.795609 3 0 3 
z
" style="stroke: #303030"/>
     </defs>
     <g>
      <use xlink:href="#mc5fa19214d" x="401.79409" y="47.020877" style="fill: #303030; stroke: #303030"/>
     </g>
    </g>
    <g id="text_17">
     <text style="font-size: 8.5px; font-family: 'DejaVu Sans'; text-anchor: start" x="411.14409" y="49.995877" transform="rotate(-0 411.14409 49.995877)">Contrast</text>
    </g>
   </g>
  </g>
  <g id="axes_3">
   <g id="patch_13">
    <path d="M 64.488189 348.151181 
L 468.779528 348.151181 
L 468.779528 256.223622 
L 64.488189 256.223622 
z
" style="fill: #ffffff"/>
   </g>
   <g id="line2d_29">
    <path d="M 64.488189 329.765669 
L 468.779528 329.765669 
" clip-path="url(#p2b37075064)" style="fill: none; stroke: #888888; stroke-width: 0.7; stroke-linecap: square"/>
   </g>
   <g id="matplotlib.axis_5">
    <g id="xtick_5">
     <g id="line2d_30">
      <g>
       <use xlink:href="#mbf6159b3c7" x="126.254921" y="348.151181" style="stroke: #000000; stroke-width: 0.6"/>
      </g>
     </g>
     <g id="text_18">
      <text style="font-size: 8.5px; font-family: 'DejaVu Sans'; text-anchor: middle" x="126.254921" y="361.609853" transform="rotate(-0 126.254921 361.609853)">Raw</text>
     </g>
    </g>
    <g id="xtick_6">
     <g id="line2d_31">
      <g>
       <use xlink:href="#mbf6159b3c7" x="407.012795" y="348.151181" style="stroke: #000000; stroke-width: 0.6"/>
      </g>
     </g>
     <g id="text_19">
      <text style="font-size: 8.5px; font-family: 'DejaVu Sans'; text-anchor: middle" x="407.012795" y="361.609853" transform="rotate(-0 407.012795 361.609853)">S3</text>
     </g>
    </g>
   </g>
   <g id="matplotlib.axis_6">
    <g id="ytick_7">
     <g id="line2d_32">
      <path d="M 64.488189 342.022677 
L 468.779528 342.022677 
" clip-path="url(#p2b37075064)" style="fill: none; stroke: #e8e8e8; stroke-width: 0.5; stroke-linecap: square"/>
     </g>
     <g id="line2d_33"/>
     <g id="text_20">
      <text style="font-size: 8.5px; font-family: 'DejaVu Sans'; text-anchor: end" x="59.488189" y="345.252013" transform="rotate(-0 59.488189 345.252013)">-0.05</text>
     </g>
    </g>
    <g id="ytick_8">
     <g id="line2d_34">
      <path d="M 64.488189 329.765669 
L 468.779528 329.765669 
" clip-path="url(#p2b37075064)" style="fill: none; stroke: #e8e8e8; stroke-width: 0.5; stroke-linecap: square"/>
     </g>
     <g id="line2d_35"/>
     <g id="text_21">
      <text style="font-size: 8.5px; font-family: 'DejaVu Sans'; text-anchor: end" x="59.488189" y="332.995005" transform="rotate(-0 59.488189 332.995005)">0.00</text>
     </g>
    </g>
    <g id="ytick_9">
     <g id="line2d_36">
      <path d="M 64.488189 305.251654 
L 468.779528 305.251654 
" clip-path="url(#p2b37075064)" style="fill: none; stroke: #e8e8e8; stroke-width: 0.5; stroke-linecap: square"/>
     </g>
     <g id="line2d_37"/>
     <g id="text_22">
      <text style="font-size: 8.5px; font-family: 'DejaVu Sans'; text-anchor: end" x="59.488189" y="308.480989" transform="rotate(-0 59.488189 308.480989)">0.10</text>
     </g>
    </g>
    <g id="ytick_10">
     <g id="line2d_38">
      <path d="M 64.488189 280.737638 
L 468.779528 280.737638 
" clip-path="url(#p2b37075064)" style="fill: none; stroke: #e8e8e8; stroke-width: 0.5; stroke-linecap: square"/>
     </g>
     <g id="line2d_39"/>
     <g id="text_23">
      <text style="font-size: 8.5px; font-family: 'DejaVu Sans'; text-anchor: end" x="59.488189" y="283.966974" transform="rotate(-0 59.488189 283.966974)">0.20</text>
     </g>
    </g>
    <g id="ytick_11">
     <g id="line2d_40">
      <path d="M 64.488189 256.223622 
L 468.779528 256.223622 
" clip-path="url(#p2b37075064)" style="fill: none; stroke: #e8e8e8; stroke-width: 0.5; stroke-linecap: square"/>
     </g>
     <g id="line2d_41"/>
     <g id="text_24">
      <text style="font-size: 8.5px; font-family: 'DejaVu Sans'; text-anchor: end" x="59.488189" y="259.452958" transform="rotate(-0 59.488189 259.452958)">0.30</text>
     </g>
    </g>
    <g id="text_25">
     <text style="font-size: 9px; font-family: 'DejaVu Sans'; text-anchor: middle" x="31.624048" y="302.187402" transform="rotate(-90 31.624048 302.187402)">Payoff gain per round vs parent</text>
    </g>
   </g>
   <g id="line2d_42">
    <path d="M 126.254921 326.433295 
L 407.012795 320.961052 
" clip-path="url(#p2b37075064)" style="fill: none; stroke: #c1c1c1; stroke-opacity: 0.8; stroke-width: 0.65; stroke-linecap: square"/>
   </g>
   <g id="patch_14">
    <path d="M 64.488189 348.151181 
L 64.488189 256.223622 
" style="fill: none; stroke: #000000; stroke-width: 0.6; stroke-linejoin: miter; stroke-linecap: square"/>
   </g>
   <g id="patch_15">
    <path d="M 64.488189 348.151181 
L 468.779528 348.151181 
" style="fill: none; stroke: #000000; stroke-width: 0.6; stroke-linejoin: miter; stroke-linecap: square"/>
   </g>
   <g id="text_26">
    <text style="font-size: 9px; font-family: 'DejaVu Sans'" transform="translate(232.483077 241.145591)">deepseek-flash</text>
    <text style="font-size: 9px; font-family: 'DejaVu Sans'" transform="translate(257.915108 251.223622)">OFF</text>
   </g>
   <g id="line2d_43">
    <path d="M 126.254921 326.433295 
" clip-path="url(#p2b37075064)" style="fill: none; stroke: #737373; stroke-width: 1.5; stroke-linecap: square"/>
    <defs>
     <path id="m48b7215189" d="M 0 3 
C 0.795609 3 1.55874 2.683901 2.12132 2.12132 
C 2.683901 1.55874 3 0.795609 3 0 
C 3 -0.795609 2.683901 -1.55874 2.12132 -2.12132 
C 1.55874 -2.683901 0.795609 -3 0 -3 
C -0.795609 -3 -1.55874 -2.683901 -2.12132 -2.12132 
C -2.683901 -1.55874 -3 -0.795609 -3 0 
C -3 0.795609 -2.683901 1.55874 -2.12132 2.12132 
C -1.55874 2.683901 -0.795609 3 0 3 
z
" style="stroke: #737373"/>
    </defs>
    <g clip-path="url(#p2b37075064)">
     <use xlink:href="#m48b7215189" x="126.254921" y="326.433295" style="fill: #ffffff; stroke: #737373"/>
    </g>
   </g>
   <g id="line2d_44">
    <path d="M 407.012795 320.961052 
" clip-path="url(#p2b37075064)" style="fill: none; stroke: #303030; stroke-width: 1.5; stroke-linecap: square"/>
    <defs>
     <path id="mfe7fe16dc7" d="M -2.75 2.75 
L 2.75 2.75 
L 2.75 -2.75 
L -2.75 -2.75 
z
" style="stroke: #303030; stroke-linejoin: miter"/>
    </defs>
    <g clip-path="url(#p2b37075064)">
     <use xlink:href="#mfe7fe16dc7" x="407.012795" y="320.961052" style="fill: #303030; stroke: #303030; stroke-linejoin: miter"/>
    </g>
   </g>
  </g>
  <g id="axes_4">
   <g id="legend_3">
    <g id="patch_16">
     <path d="M 164.184994 227.283296 
L 374.043353 227.283296 
Q 375.743353 227.283296 375.743353 225.583296 
L 375.743353 213.95689 
Q 375.743353 212.25689 374.043353 212.25689 
L 164.184994 212.25689 
Q 162.484994 212.25689 162.484994 213.95689 
L 162.484994 225.583296 
Q 162.484994 227.283296 164.184994 227.283296 
z
" style="fill: #ffffff"/>
    </g>
    <g id="line2d_45">
     <path d="M 165.884994 219.140562 
L 171.834994 219.140562 
L 177.784994 219.140562 
" style="fill: none"/>
     <g>
      <use xlink:href="#m48b7215189" x="171.834994" y="219.140562" style="fill: #ffffff; stroke: #737373"/>
     </g>
    </g>
    <g id="text_27">
     <text style="font-size: 8.5px; font-family: 'DejaVu Sans'; text-anchor: start" x="181.184994" y="222.115562" transform="rotate(-0 181.184994 222.115562)">Raw mean</text>
    </g>
    <g id="line2d_46">
     <path d="M 233.092103 219.140562 
L 239.042103 219.140562 
L 244.992103 219.140562 
" style="fill: none"/>
     <defs>
      <path id="m77f2e1a701" d="M -3 3 
L 3 3 
L 3 -3 
L -3 -3 
z
" style="stroke: #303030; stroke-linejoin: miter"/>
     </defs>
     <g>
      <use xlink:href="#m77f2e1a701" x="239.042103" y="219.140562" style="fill: #303030; stroke: #303030; stroke-linejoin: miter"/>
     </g>
    </g>
    <g id="text_28">
     <text style="font-size: 8.5px; font-family: 'DejaVu Sans'; text-anchor: start" x="248.392103" y="222.115562" transform="rotate(-0 248.392103 222.115562)">S3 mean</text>
    </g>
    <g id="line2d_47">
     <path d="M 293.228275 219.140562 
L 299.178275 219.140562 
L 305.128275 219.140562 
" style="fill: none; stroke: #c1c1c1; stroke-width: 0.65; stroke-linecap: square"/>
    </g>
    <g id="text_29">
     <text style="font-size: 8.5px; font-family: 'DejaVu Sans'; text-anchor: start" x="308.528275" y="222.115562" transform="rotate(-0 308.528275 222.115562)">Population pair</text>
    </g>
   </g>
  </g>
  <g id="text_30">
   <text style="font-weight: 700; font-size: 9.5px; font-family: 'DejaVu Sans'; text-anchor: start" x="12.401575" y="18.756895" transform="rotate(-0 12.401575 18.756895)">(a)</text>
  </g>
  <g id="text_31">
   <text style="font-weight: 700; font-size: 9.5px; font-family: 'DejaVu Sans'; text-anchor: start" x="265.393701" y="18.756895" transform="rotate(-0 265.393701 18.756895)">(b)</text>
  </g>
  <g id="text_32">
   <text style="font-weight: 700; font-size: 9.5px; font-family: 'DejaVu Sans'; text-anchor: start" x="12.401575" y="205.350281" transform="rotate(-0 12.401575 205.350281)">(c)</text>
  </g>
  <g id="text_33">
   <text style="font-size: 8.5px; font-family: 'DejaVu Sans'; text-anchor: middle; fill: #303030" x="266.633858" y="375.533858" transform="rotate(-0 266.633858 375.533858)">+0.014 / +0.036</text>
  </g>
 </g>
 <defs>
  <clipPath id="p76633541b6">
   <rect x="52.086614" y="37.162205" width="198.425197" height="117.354331"/>
  </clipPath>
  <clipPath id="p1c43cb06a6">
   <rect x="357.165354" y="37.162205" width="128.976378" height="117.354331"/>
  </clipPath>
  <clipPath id="p2b37075064">
   <rect x="64.488189" y="256.223622" width="404.291339" height="91.927559"/>
  </clipPath>
 </defs>
</svg>
